<?xml version="1.0" encoding="UTF-8" standalone="no"?>
<svg
   width="237"
   height="237"
   xml:space="preserve"
   overflow="hidden"
   version="1.1"
   id="svg4"
   sodipodi:docname="logo.svg"
   inkscape:version="1.3.2 (091e20ef0f, 2023-11-25, custom)"
   xmlns:inkscape="http://www.inkscape.org/namespaces/inkscape"
   xmlns:sodipodi="http://sodipodi.sourceforge.net/DTD/sodipodi-0.dtd"
   xmlns="http://www.w3.org/2000/svg"
   xmlns:svg="http://www.w3.org/2000/svg"><defs
     id="defs4" /><sodipodi:namedview
     id="namedview4"
     pagecolor="#ffffff"
     bordercolor="#000000"
     borderopacity="0.25"
     inkscape:showpageshadow="2"
     inkscape:pageopacity="0.0"
     inkscape:pagecheckerboard="0"
     inkscape:deskcolor="#d1d1d1"
     inkscape:zoom="4.1815385"
     inkscape:cx="106.53974"
     inkscape:cy="118.01876"
     inkscape:window-width="2560"
     inkscape:window-height="1366"
     inkscape:window-x="0"
     inkscape:window-y="0"
     inkscape:window-maximized="1"
     inkscape:current-layer="g4" /><g
     transform="translate(-2627,-1178)"
     id="g4"><path
       d="m 2627,1296.5 c 0,-65.45 53.05,-118.5 118.5,-118.5 65.45,0 118.5,53.05 118.5,118.5 0,65.45 -53.05,118.5 -118.5,118.5 -65.45,0 -118.5,-53.05 -118.5,-118.5 z"
       fill="#ffffff"
       fill-rule="evenodd"
       id="path1" /><path
       d="m 2639,1297 c 0,-58.54 47.46,-106 106,-106 58.54,0 106,47.46 106,106 0,58.54 -47.46,106 -106,106 -58.54,0 -106,-47.46 -106,-106 z"
       fill-rule="evenodd"
       id="path2" /><text
       fill="#ffffff"
       font-family="Arial, Arial_MSFontService, sans-serif"
       font-weight="700"
       font-size="73px"
       transform="translate(2686.12,1358)"
       id="text2">Map</text><text
       fill="#ffffff"
       font-family="Arial, Arial_MSFontService, sans-serif"
       font-weight="700"
       font-size="83px"
       transform="translate(2685.66,1299)"
       id="text3">exic</text><path
       d="m 2690.64,1294.53 -31.03,78.93 19.19,-82.61 z"
       fill="#ff9900"
       fill-rule="evenodd"
       id="path3" /><text
       fill="#ff9900"
       font-family="Arial, Arial_MSFontService, sans-serif"
       font-weight="700"
       font-size="92px"
       transform="rotate(7.121797,-9087.1771,21825.128)"
       id="text4">L</text></g></svg>
