<?xml version="1.0" encoding="UTF-8" standalone="no"?>
<svg
   width="824"
   height="237"
   overflow="hidden"
   version="1.1"
   id="svg59"
   sodipodi:docname="indexing.svg"
   inkscape:version="1.3.2 (091e20ef0f, 2023-11-25, custom)"
   xmlns:inkscape="http://www.inkscape.org/namespaces/inkscape"
   xmlns:sodipodi="http://sodipodi.sourceforge.net/DTD/sodipodi-0.dtd"
   xmlns="http://www.w3.org/2000/svg"
   xmlns:svg="http://www.w3.org/2000/svg">
  <defs
     id="defs59" />
  <sodipodi:namedview
     id="namedview59"
     pagecolor="#ffffff"
     bordercolor="#000000"
     borderopacity="0.25"
     inkscape:showpageshadow="2"
     inkscape:pageopacity="0.0"
     inkscape:pagecheckerboard="0"
     inkscape:deskcolor="#d1d1d1"
     inkscape:zoom="1.0617188"
     inkscape:cx="477.99853"
     inkscape:cy="308.4621"
     inkscape:window-width="2560"
     inkscape:window-height="1366"
     inkscape:window-x="0"
     inkscape:window-y="0"
     inkscape:window-maximized="1"
     inkscape:current-layer="g59" />
  <g
     id="g59"
     transform="translate(-162,-52)">
    <rect
       x="0"
       y="0"
       width="1280"
       height="720"
       fill="#ffffff"
       id="rect1" />
    <rect
       x="162"
       y="52"
       width="824"
       height="237"
       fill="#ffffff"
       id="rect2" />
    <path
       d="m 286.5,149.137 c 40.033,4.6 40.033,-4.6 80.062,-4.6 V 120.625 H 286.5 Z m 6.596,-28.512 v -3.1 h 79.515 v 24.062 c -3.022,0 -6.049,0.166 -6.049,0.166 v -21.128 z m 6.2,-3.1 V 114.5 H 379.5 v 23.987 c -3.444,0 -6.889,0.125 -6.889,0.125 v -21.087 z"
       fill="#ffffff"
       fill-rule="evenodd"
       id="path2" />
    <path
       d="m 286.5,120.625 h 80.062 v 23.912 c -40.029,0 -40.029,9.2 -80.062,4.6 z m 6.596,0 v -3.1 h 79.515 v 24.062 c -3.022,0 -6.049,0.166 -6.049,0.166 M 299.296,117.525 V 114.5 H 379.5 v 23.987 c -3.444,0 -6.889,0.125 -6.889,0.125"
       stroke="#000000"
       stroke-width="1.33333"
       stroke-miterlimit="8"
       fill="none"
       fill-rule="evenodd"
       id="path3" />
    <text
       font-family="Arial, Arial_MSFontService, sans-serif"
       font-weight="400"
       font-size="15px"
       transform="translate(294.112,138)"
       id="text3">Genomes</text>
    <path
       d="m 286.5,229.099 c 40.033,4.728 40.033,-4.728 80.062,-4.728 V 199.795 H 286.5 Z m 6.596,-29.304 v -3.186 h 79.515 v 24.73 c -3.022,0 -6.049,0.171 -6.049,0.171 v -21.715 z m 6.2,-3.186 V 193.5 H 379.5 v 24.653 c -3.444,0 -6.889,0.128 -6.889,0.128 v -21.672 z"
       fill="#ffffff"
       fill-rule="evenodd"
       id="path4" />
    <path
       d="m 286.5,199.795 h 80.062 v 24.576 c -40.029,0 -40.029,9.456 -80.062,4.728 z m 6.596,0 v -3.186 h 79.515 v 24.73 c -3.022,0 -6.049,0.171 -6.049,0.171 M 299.296,196.609 V 193.5 H 379.5 v 24.653 c -3.444,0 -6.889,0.128 -6.889,0.128"
       stroke="#000000"
       stroke-width="1.33333"
       stroke-miterlimit="8"
       fill="none"
       fill-rule="evenodd"
       id="path5" />
    <text
       font-family="Arial, Arial_MSFontService, sans-serif"
       font-weight="400"
       font-size="15px"
       transform="translate(294.112,217)"
       id="text5">Genomes</text>
    <path
       d="m 472.5,120.5 c 0,-3.314 16.118,-6 36,-6 19.882,0 36,2.686 36,6 v 24 c 0,3.314 -16.118,6 -36,6 -19.882,0 -36,-2.686 -36,-6 z"
       fill="#bdd7ee"
       fill-rule="evenodd"
       id="path6" />
    <path
       d="m 544.5,120.5 c 0,3.314 -16.118,6 -36,6 -19.882,0 -36,-2.686 -36,-6"
       stroke="#000000"
       stroke-width="1.33333"
       stroke-miterlimit="8"
       fill="none"
       fill-rule="evenodd"
       id="path7" />
    <path
       d="m 472.5,120.5 c 0,-3.314 16.118,-6 36,-6 19.882,0 36,2.686 36,6 v 24 c 0,3.314 -16.118,6 -36,6 -19.882,0 -36,-2.686 -36,-6 z"
       stroke="#000000"
       stroke-width="1.33333"
       stroke-miterlimit="8"
       fill="none"
       fill-rule="evenodd"
       id="path8" />
    <text
       font-family="Arial, Arial_MSFontService, sans-serif"
       font-weight="400"
       font-size="15px"
       transform="translate(490.142,140)"
       id="text8">Index</text>
    <path
       d="m 472.5,199.5 c 0,-3.314 16.118,-6 36,-6 19.882,0 36,2.686 36,6 v 24 c 0,3.314 -16.118,6 -36,6 -19.882,0 -36,-2.686 -36,-6 z"
       fill="#bdd7ee"
       fill-rule="evenodd"
       id="path9" />
    <path
       d="m 544.5,199.5 c 0,3.314 -16.118,6 -36,6 -19.882,0 -36,-2.686 -36,-6"
       stroke="#000000"
       stroke-width="1.33333"
       stroke-miterlimit="8"
       fill="none"
       fill-rule="evenodd"
       id="path10" />
    <path
       d="m 472.5,199.5 c 0,-3.314 16.118,-6 36,-6 19.882,0 36,2.686 36,6 v 24 c 0,3.314 -16.118,6 -36,6 -19.882,0 -36,-2.686 -36,-6 z"
       stroke="#000000"
       stroke-width="1.33333"
       stroke-miterlimit="8"
       fill="none"
       fill-rule="evenodd"
       id="path11" />
    <text
       font-family="Arial, Arial_MSFontService, sans-serif"
       font-weight="400"
       font-size="15px"
       transform="translate(490.142,219)"
       id="text11">Index</text>
    <path
       d="m 379.5,131.833 h 86.863 v 1.334 H 379.5 Z m 85.53,-3.333 8,4 -8,4 z"
       id="path12" />
    <path
       d="M 0.0045116,-0.666651 86.8675,-0.0788014 86.8584,1.2545 -0.0045116,0.666651 Z M 85.5567,-3.42108 93.5294,0.632966 85.5026,4.57873 Z"
       transform="matrix(1,0,0,-1,379.5,212.133)"
       id="path13" />
    <text
       font-family="Arial, Arial_MSFontService, sans-serif"
       font-weight="700"
       font-size="15px"
       transform="translate(317.985,177)"
       id="text13">···</text>
    <text
       font-family="Arial, Arial_MSFontService, sans-serif"
       font-weight="700"
       font-size="15px"
       transform="translate(500.809,176)"
       id="text14">···</text>
    <path
       d="m 649.5,152 c 0,-5.247 16.118,-9.5 36,-9.5 19.882,0 36,4.253 36,9.5 v 38 c 0,5.247 -16.118,9.5 -36,9.5 -19.882,0 -36,-4.253 -36,-9.5 z"
       fill="#bdd7ee"
       fill-rule="evenodd"
       id="path14" />
    <path
       d="m 721.5,152 c 0,5.247 -16.118,9.5 -36,9.5 -19.882,0 -36,-4.253 -36,-9.5"
       stroke="#000000"
       stroke-width="1.33333"
       stroke-miterlimit="8"
       fill="none"
       fill-rule="evenodd"
       id="path15" />
    <path
       d="m 649.5,152 c 0,-5.247 16.118,-9.5 36,-9.5 19.882,0 36,4.253 36,9.5 v 38 c 0,5.247 -16.118,9.5 -36,9.5 -19.882,0 -36,-4.253 -36,-9.5 z"
       stroke="#000000"
       stroke-width="1.33333"
       stroke-miterlimit="8"
       fill="none"
       fill-rule="evenodd"
       id="path16" />
    <text
       font-family="Arial, Arial_MSFontService, sans-serif"
       font-weight="400"
       font-size="15px"
       transform="translate(666.801,180)"
       id="text16">Index</text>
    <path
       d="m 544.5,131.833 h 13.466 v 39.012 l -0.666,-0.667 h 85.192 v 1.334 H 556.633 V 132.5 l 0.667,0.667 h -12.8 z m 96.659,35.012 8,4 -8,4 z"
       id="path17" />
    <path
       d="M 0,-0.666667 H 13.4664 V 40.6311 l -0.6666,-0.6667 h 85.1924 v 1.3333 H 12.1331 V 0 l 0.6667,0.666667 H 0 Z m 96.6589,37.297767 8.0001,4 -8.0001,4 z"
       transform="matrix(1,0,0,-1,544.5,211.131)"
       id="path18" />
    <text
       font-family="Arial, Arial_MSFontService, sans-serif"
       font-weight="400"
       font-size="14px"
       transform="translate(381.128,109)"
       id="text18">Build an</text>
    <text
       font-family="Arial, Arial_MSFontService, sans-serif"
       font-weight="400"
       font-size="14px"
       transform="translate(435.794,109)"
       id="text19">index</text>
    <text
       font-family="Arial, Arial_MSFontService, sans-serif"
       font-weight="400"
       font-size="15px"
       transform="translate(207.279,168)"
       id="text20">Genome</text>
    <text
       font-family="Arial, Arial_MSFontService, sans-serif"
       font-weight="400"
       font-size="15px"
       transform="translate(209.699,181)"
       id="text21">batches</text>
    <path
       d="m 279.5,210.5 c -2.761,0 -5,-0.373 -5,-0.833 v -38.334 c 0,-0.46 -2.239,-0.833 -5,-0.833 2.761,0 5,-0.373 5,-0.833 v -38.334 c 0,-0.46 2.239,-0.833 5,-0.833"
       stroke="#000000"
       stroke-width="1.33333"
       stroke-miterlimit="8"
       fill="none"
       fill-rule="evenodd"
       id="path21" />
    <text
       font-family="Arial, Arial_MSFontService, sans-serif"
       font-weight="400"
       font-size="14px"
       transform="translate(563.732,141)"
       id="text22">Merge indexes</text>
    <path
       d="m 738.5,274.5 c -2.761,0 -5,-0.373 -5,-0.833 V 172.333 c 0,-0.46 -2.239,-0.833 -5,-0.833 2.761,0 5,-0.373 5,-0.833 V 69.3334 c 0,-0.4603 2.239,-0.8333 5,-0.8333"
       stroke="#000000"
       stroke-width="1.33333"
       stroke-miterlimit="8"
       fill="none"
       fill-rule="evenodd"
       id="path22" />
    <path
       d="m 823.5,70.5001 h 58 v 19.2466 c -29,0 -29,7.3334 -58,3.1667 z"
       stroke="#000000"
       stroke-width="1.33333"
       stroke-miterlimit="8"
       fill="#94cc99"
       fill-rule="evenodd"
       id="path23" />
    <text
       font-family="Arial, Arial_MSFontService, sans-serif"
       font-weight="400"
       font-size="12px"
       transform="translate(828.04,83)"
       id="text23">Index file</text>
    <path
       d="M 0,0 14.9508,0.225617"
       stroke="#000000"
       stroke-width="1.33333"
       stroke-miterlimit="8"
       fill="none"
       fill-rule="evenodd"
       transform="matrix(1,0,0,-1,808.5,82.7257)"
       id="path24" />
    <text
       font-family="Arial, Arial_MSFontService, sans-serif"
       font-weight="700"
       font-size="15px"
       transform="translate(769.527,122)"
       id="text24">···</text>
    <text
       font-family="Arial, Arial_MSFontService, sans-serif"
       font-weight="700"
       font-size="15px"
       transform="translate(845.056,123)"
       id="text25">···</text>
    <path
       d="m 890.5,60.5001 c 3.038,0 5.5,0.4104 5.5,0.9166 v 56.6663 c 0,0.507 2.462,0.917 5.5,0.917 -3.038,0 -5.5,0.41 -5.5,0.917 v 56.666 c 0,0.507 -2.462,0.917 -5.5,0.917"
       stroke="#000000"
       stroke-width="1.33333"
       stroke-miterlimit="8"
       fill="none"
       fill-rule="evenodd"
       id="path25" />
    <text
       font-family="Arial, Arial_MSFontService, sans-serif"
       font-style="italic"
       font-weight="400"
       font-size="14px"
       transform="translate(918.651,103)"
       id="text26">k</text>
    <text
       font-family="Arial, Arial_MSFontService, sans-serif"
       font-weight="400"
       font-size="14px"
       transform="translate(925.651,103)"
       id="text27">-</text>
    <text
       font-family="Arial, Arial_MSFontService, sans-serif"
       font-weight="400"
       font-size="14px"
       transform="translate(930.318,103)"
       id="text28">mer</text>
    <text
       font-family="Arial, Arial_MSFontService, sans-serif"
       font-weight="400"
       font-size="14px"
       transform="translate(911.564,116)"
       id="text29">inverted</text>
    <text
       font-family="Arial, Arial_MSFontService, sans-serif"
       font-weight="400"
       font-size="14px"
       transform="translate(904.898,130)"
       id="text30">indexes in</text>
    <text
       font-family="Arial, Arial_MSFontService, sans-serif"
       font-weight="400"
       font-size="14px"
       transform="translate(914.318,143)"
       id="text31">chunks</text>
    <path
       d="m 748.5,228.947 c 61.987,5.239 61.987,-5.239 123.967,-5.239 V 196.476 H 748.5 Z m 10.213,-32.471 v -3.531 h 123.12 v 27.404 c -4.68,0 -9.366,0.19 -9.366,0.19 v -24.063 z m 9.6,-3.531 V 189.5 H 892.5 v 27.318 c -5.333,0 -10.667,0.143 -10.667,0.143 v -24.016 z"
       fill="#d9d9d9"
       fill-rule="evenodd"
       id="path31" />
    <path
       d="m 748.5,196.476 h 123.967 v 27.232 c -61.98,0 -61.98,10.478 -123.967,5.239 z m 10.213,0 v -3.531 h 123.12 v 27.404 c -4.68,0 -9.366,0.19 -9.366,0.19 M 768.313,192.945 V 189.5 H 892.5 v 27.318 c -5.333,0 -10.667,0.143 -10.667,0.143"
       stroke="#000000"
       stroke-width="1.33333"
       stroke-miterlimit="8"
       fill="none"
       fill-rule="evenodd"
       id="path32" />
    <text
       font-family="Arial, Arial_MSFontService, sans-serif"
       font-weight="400"
       font-size="12px"
       transform="translate(781.751,209)"
       id="text32">Bit</text>
    <text
       font-family="Arial, Arial_MSFontService, sans-serif"
       font-weight="400"
       font-size="12px"
       transform="translate(795.751,209)"
       id="text33">-</text>
    <text
       font-family="Arial, Arial_MSFontService, sans-serif"
       font-weight="400"
       font-size="12px"
       transform="translate(799.751,209)"
       id="text34">packed</text>
    <text
       font-family="Arial, Arial_MSFontService, sans-serif"
       font-weight="400"
       font-size="12px"
       transform="translate(762.751,222)"
       id="text35">Genomes batch 1</text>
    <path
       d="m 750.5,57.5001 h 58 v 40.0972 c -29,0 -29,15.2777 -58,6.5967 z"
       stroke="#000000"
       stroke-width="1.33333"
       stroke-miterlimit="8"
       fill="#ffc000"
       fill-rule="evenodd"
       id="path35" />
    <text
       font-family="Arial, Arial_MSFontService, sans-serif"
       font-style="italic"
       font-weight="400"
       font-size="12px"
       transform="translate(759.337,70)"
       id="text36">k</text>
    <text
       font-family="Arial, Arial_MSFontService, sans-serif"
       font-weight="400"
       font-size="12px"
       transform="translate(765.337,70)"
       id="text37">-</text>
    <text
       font-family="Arial, Arial_MSFontService, sans-serif"
       font-weight="400"
       font-size="12px"
       transform="translate(769.337,70)"
       id="text38">mer&amp;</text>
    <text
       font-family="Arial, Arial_MSFontService, sans-serif"
       font-weight="400"
       font-size="12px"
       transform="translate(761.337,82)"
       id="text39">values</text>
    <text
       font-family="Arial, Arial_MSFontService, sans-serif"
       font-weight="400"
       font-size="12px"
       transform="translate(757.67,94)"
       id="text40">chunk 1</text>
    <path
       d="m 823.5,140.5 h 58 v 19.247 c -29,0 -29,7.333 -58,3.166 z"
       stroke="#000000"
       stroke-width="1.33333"
       stroke-miterlimit="8"
       fill="#94cc99"
       fill-rule="evenodd"
       id="path40" />
    <text
       font-family="Arial, Arial_MSFontService, sans-serif"
       font-weight="400"
       font-size="12px"
       transform="translate(828.04,153)"
       id="text41">Index file</text>
    <path
       d="M 0,0 14.6677,1.04987e-4"
       stroke="#000000"
       stroke-width="1.33333"
       stroke-miterlimit="8"
       fill="none"
       fill-rule="evenodd"
       transform="matrix(1,0,0,-1,808.5,152.5)"
       id="path41" />
    <path
       d="m 750.5,127.5 h 58 v 40.097 c -29,0 -29,15.278 -58,6.597 z"
       stroke="#000000"
       stroke-width="1.33333"
       stroke-miterlimit="8"
       fill="#ffc000"
       fill-rule="evenodd"
       id="path42" />
    <text
       font-family="Arial, Arial_MSFontService, sans-serif"
       font-style="italic"
       font-weight="400"
       font-size="12px"
       transform="translate(759.62,140)"
       id="text42">k</text>
    <text
       font-family="Arial, Arial_MSFontService, sans-serif"
       font-weight="400"
       font-size="12px"
       transform="translate(765.62,140)"
       id="text43">-</text>
    <text
       font-family="Arial, Arial_MSFontService, sans-serif"
       font-weight="400"
       font-size="12px"
       transform="translate(769.62,140)"
       id="text44">mer&amp;</text>
    <text
       font-family="Arial, Arial_MSFontService, sans-serif"
       font-weight="400"
       font-size="12px"
       transform="translate(761.62,152)"
       id="text45">values</text>
    <text
       font-family="Arial, Arial_MSFontService, sans-serif"
       font-weight="400"
       font-size="12px"
       transform="translate(758.287,164)"
       id="text46">chunk</text>
    <text
       font-family="Arial, Arial_MSFontService, sans-serif"
       font-style="italic"
       font-weight="400"
       font-size="12px"
       transform="translate(793.62,164)"
       id="text47">c</text>
    <text
       font-family="Arial, Arial_MSFontService, sans-serif"
       font-weight="400"
       font-size="24px"
       transform="translate(166.48,86)"
       id="text48">Indexing</text>
    <path
       d="m 748.5,281.947 c 61.987,5.239 61.987,-5.239 123.967,-5.239 V 249.476 H 748.5 Z m 10.213,-32.471 v -3.531 h 123.12 v 27.404 c -4.68,0 -9.366,0.19 -9.366,0.19 v -24.063 z m 9.6,-3.531 V 242.5 H 892.5 v 27.318 c -5.333,0 -10.667,0.143 -10.667,0.143 v -24.016 z"
       fill="#d9d9d9"
       fill-rule="evenodd"
       id="path48" />
    <path
       d="m 748.5,249.476 h 123.967 v 27.232 c -61.98,0 -61.98,10.478 -123.967,5.239 z m 10.213,0 v -3.531 h 123.12 v 27.404 c -4.68,0 -9.366,0.19 -9.366,0.19 M 768.313,245.945 V 242.5 H 892.5 v 27.318 c -5.333,0 -10.667,0.143 -10.667,0.143"
       stroke="#000000"
       stroke-width="1.33333"
       stroke-miterlimit="8"
       fill="none"
       fill-rule="evenodd"
       id="path49" />
    <text
       font-family="Arial, Arial_MSFontService, sans-serif"
       font-weight="400"
       font-size="12px"
       transform="translate(781.751,262)"
       id="text49">Bit</text>
    <text
       font-family="Arial, Arial_MSFontService, sans-serif"
       font-weight="400"
       font-size="12px"
       transform="translate(795.751,262)"
       id="text50">-</text>
    <text
       font-family="Arial, Arial_MSFontService, sans-serif"
       font-weight="400"
       font-size="12px"
       transform="translate(799.751,262)"
       id="text51">packed</text>
    <text
       font-family="Arial, Arial_MSFontService, sans-serif"
       font-weight="400"
       font-size="12px"
       transform="translate(762.751,275)"
       id="text52">Genomes batch</text>
    <text
       font-family="Arial, Arial_MSFontService, sans-serif"
       font-style="italic"
       font-weight="400"
       font-size="12px"
       transform="translate(850.751,275)"
       id="text53">b</text>
    <text
       font-family="Arial, Arial_MSFontService, sans-serif"
       font-weight="700"
       font-size="15px"
       transform="translate(807.02,241)"
       id="text54">···</text>
    <path
       d="m 902.5,189.5 c 2.762,0 5,0.373 5,0.833 v 42.334 c 0,0.46 2.239,0.833 5,0.833 -2.761,0 -5,0.373 -5,0.833 v 42.334 c 0,0.46 -2.239,0.833 -5,0.833"
       stroke="#000000"
       stroke-width="1.33333"
       stroke-miterlimit="8"
       fill="none"
       fill-rule="evenodd"
       id="path54" />
    <text
       font-family="Arial, Arial_MSFontService, sans-serif"
       font-weight="400"
       font-size="14px"
       transform="translate(914.95,229)"
       id="text55">Bit</text>
    <text
       font-family="Arial, Arial_MSFontService, sans-serif"
       font-weight="400"
       font-size="14px"
       transform="translate(931.283,229)"
       id="text56">-</text>
    <text
       font-family="Arial, Arial_MSFontService, sans-serif"
       font-weight="400"
       font-size="14px"
       transform="translate(935.95,229)"
       id="text57">packed</text>
    <text
       font-family="Arial, Arial_MSFontService, sans-serif"
       font-weight="400"
       font-size="14px"
       transform="translate(922.703,242)"
       id="text58">genome</text>
    <text
       font-family="Arial, Arial_MSFontService, sans-serif"
       font-weight="400"
       font-size="14px"
       transform="translate(923.536,256)"
       id="text59">batches</text>
  </g>
</svg>
